<?xml version="1.0" encoding="UTF-8"?>
<svg xmlns="http://www.w3.org/2000/svg" width="190" height="42" viewBox="0 0 190 42" fill="none">
  <g clip-path="url(#clip0_4510_444)">
    <path d="M15.2015 21.0092L25.1956 15.1817C25.2823 15.1301 25.3542 15.0565 25.4042 14.9683C25.4542 14.8801 25.4806 14.7802 25.4809 14.6785V6.81555C25.4808 6.71443 25.4543 6.61511 25.4042 6.52757C25.3541 6.44003 25.2821 6.36735 25.1953 6.31683C25.1086 6.26631 25.0103 6.23972 24.9102 6.23975C24.81 6.23977 24.7117 6.26641 24.625 6.31697L0.307824 20.4969C0.220273 20.5472 0.147481 20.6201 0.0968438 20.7081C0.046207 20.796 0.0195313 20.896 0.0195312 20.9978C0.0195313 21.0995 0.046207 21.1995 0.0968438 21.2874C0.147481 21.3754 0.220273 21.4483 0.307824 21.4986L7.05958 25.437C7.14685 25.4884 7.24608 25.5155 7.34712 25.5155C7.44817 25.5155 7.5474 25.4884 7.63468 25.437L15.2015 21.0092Z" fill="white"></path>
    <path d="M28.5689 4.00239C28.4811 4.05309 28.408 4.12631 28.3571 4.21466C28.3062 4.303 28.2793 4.40333 28.2791 4.50554V27.6371C28.2784 27.7381 28.2518 27.8372 28.2016 27.9245C28.1515 28.0119 28.0797 28.0846 27.9933 28.1354C27.9069 28.1861 27.8089 28.2133 27.7089 28.2142C27.609 28.215 27.5105 28.1896 27.4233 28.1403L18.3077 22.8251C18.2213 22.7736 18.1228 22.7464 18.0224 22.7464C17.9221 22.7464 17.8236 22.7736 17.7371 22.8251L11.0035 26.7497C10.9171 26.801 10.8455 26.8742 10.7957 26.962C10.7459 27.0499 10.7197 27.1494 10.7197 27.2506C10.7197 27.3518 10.7459 27.4513 10.7957 27.5391C10.8455 27.627 10.9171 27.7002 11.0035 27.7515L35.298 41.9314C35.3854 41.9818 35.4844 42.0082 35.585 42.0079C35.6856 42.0076 35.7844 41.9806 35.8715 41.9297C35.9585 41.8788 36.0309 41.8057 36.0812 41.7177C36.1316 41.6297 36.1582 41.5299 36.1584 41.4282V0.580909C36.1588 0.47911 36.1325 0.379027 36.0821 0.290843C36.0318 0.202658 35.9592 0.129521 35.8718 0.0788646C35.7844 0.0282079 35.6852 0.00184342 35.5844 0.0024517C35.4837 0.00305998 35.3848 0.0306182 35.298 0.0823265L28.5689 4.00239Z" fill="white"></path>
    <path d="M67.644 24.9749C67.644 27.3077 66.9814 29.1115 65.6561 30.3861C64.3308 31.6608 62.5195 32.2966 60.2221 32.2936C58.8295 32.3089 57.4526 31.9956 56.2009 31.3787C54.9783 30.7604 53.8911 29.9002 53.0039 28.8492L55.3043 25.3774C55.9927 26.1381 56.8101 26.7686 57.7179 27.2391C58.4146 27.6213 59.1898 27.8343 59.9821 27.8612C60.3404 27.881 60.6988 27.8231 61.0331 27.6913C61.3674 27.5596 61.6699 27.357 61.9202 27.0973C62.4307 26.4743 62.6837 25.6764 62.6266 24.8697V13.9283H55.0371V9.81152H67.644V24.9749Z" fill="white"></path>
    <path d="M75.2383 9.79346H80.2195V32.0742H75.2383V9.79346Z" fill="white"></path>
    <path d="M88.2528 9.79346H93.7955L100.665 23.6669L107.458 9.79346H112.973V32.0742H108.499V16.7325L102.227 29.8146H99.0122L92.7133 16.7325V32.0742H88.2393L88.2528 9.79346Z" fill="white"></path>
    <path d="M131.168 9.79321C132.593 9.76012 134.011 9.98633 135.357 10.461C136.424 10.831 137.366 11.4986 138.074 12.3868C138.719 13.2389 139.059 14.2872 139.038 15.36C139.063 16.4942 138.7 17.6023 138.01 18.4978C137.308 19.3912 136.323 20.0143 135.221 20.2635C136.547 20.4561 137.755 21.1392 138.611 22.1804C139.467 23.2216 139.91 24.5467 139.853 25.8988C139.881 27.0813 139.519 28.2395 138.825 29.1922C138.082 30.1617 137.084 30.9004 135.945 31.3238C134.534 31.8533 133.036 32.1079 131.53 32.074H121.02V9.79321H131.168ZM130.914 18.7997C131.706 18.8417 132.487 18.6004 133.12 18.1182C133.392 17.8873 133.608 17.5958 133.75 17.2664C133.893 16.937 133.957 16.5788 133.939 16.2199C133.957 15.8711 133.891 15.5231 133.749 15.2049C133.606 14.8866 133.391 14.6074 133.12 14.3902C132.48 13.9272 131.699 13.7084 130.914 13.7727H125.997V18.8043L130.914 18.7997ZM130.914 28.0944C131.893 28.148 132.863 27.8922 133.69 27.3626C134.016 27.1304 134.278 26.8194 134.454 26.4582C134.629 26.097 134.713 25.6971 134.696 25.2951C134.706 24.9069 134.619 24.5223 134.444 24.1769C134.268 23.8315 134.009 23.5365 133.69 23.319C132.864 22.7888 131.89 22.5433 130.914 22.6192H125.997V28.1082L130.914 28.0944Z" fill="white"></path>
    <path d="M146.605 9.79346H163.401V13.8462H151.586V18.8777H162.205V22.9213H151.586V28.0261H163.749V32.0696H146.605V9.79346Z" fill="white"></path>
    <path d="M180.386 9.79346C183.266 9.79346 185.499 10.4658 187.084 11.8107C188.668 13.1555 189.461 15.0537 189.461 17.5055C189.461 20.0701 188.668 22.069 187.084 23.5022C185.499 24.9355 183.266 25.6521 180.386 25.6521H175.785V32.0834H170.804V9.79346H180.386ZM180.386 21.5674C181.532 21.6384 182.666 21.2946 183.583 20.5976C184.353 19.9527 184.733 18.9692 184.733 17.6564C184.733 16.3437 184.353 15.4242 183.583 14.7884C182.661 14.1021 181.53 13.7638 180.386 13.8324H175.785V21.5674H180.386ZM179.788 23.7675H184.638L189.995 32.0742H184.358L179.788 23.7675Z" fill="white"></path>
  </g>
  <defs>
    <clipPath id="clip0_4510_444">
      <rect width="190" height="42" fill="white"></rect>
    </clipPath>
  </defs>
</svg>
